# This file uses centimeters as units for non-parametric coordinates.

mtllib lowRes_Cylinder.mtl
v 0.404509 -0.500000 -0.293893
v 0.154508 -0.500000 -0.475528
v -0.154509 -0.500000 -0.475528
v -0.404509 -0.500000 -0.293893
v -0.500000 -0.500000 0.000000
v -0.404509 -0.500000 0.293893
v -0.154508 -0.500000 0.475528
v 0.154509 -0.500000 0.475528
v 0.404509 -0.500000 0.293893
v 0.500000 -0.500000 0.000000
v 0.404509 0.500000 -0.293893
v 0.154508 0.500000 -0.475528
v -0.154509 0.500000 -0.475528
v -0.404509 0.500000 -0.293893
v -0.500000 0.500000 0.000000
v -0.404509 0.500000 0.293893
v -0.154508 0.500000 0.475528
v 0.154509 0.500000 0.475528
v 0.404509 0.500000 0.293893
v 0.500000 0.500000 0.000000
v 0.000000 -0.500000 0.000000
v 0.000000 0.500000 0.000000
vt 0.626409 0.064409
vt 0.548284 0.007647
vt 0.451716 0.007647
vt 0.373591 0.064409
vt 0.343750 0.156250
vt 0.373591 0.248091
vt 0.451716 0.304853
vt 0.548284 0.304853
vt 0.626409 0.248091
vt 0.656250 0.156250
vt 0.375000 0.312500
vt 0.400000 0.312500
vt 0.425000 0.312500
vt 0.450000 0.312500
vt 0.475000 0.312500
vt 0.500000 0.312500
vt 0.525000 0.312500
vt 0.550000 0.312500
vt 0.575000 0.312500
vt 0.600000 0.312500
vt 0.625000 0.312500
vt 0.375000 0.687500
vt 0.400000 0.687500
vt 0.425000 0.687500
vt 0.450000 0.687500
vt 0.475000 0.687500
vt 0.500000 0.687500
vt 0.525000 0.687500
vt 0.550000 0.687500
vt 0.575000 0.687500
vt 0.600000 0.687500
vt 0.625000 0.687500
vt 0.626409 0.751909
vt 0.548284 0.695147
vt 0.451716 0.695147
vt 0.373591 0.751909
vt 0.343750 0.843750
vt 0.373591 0.935591
vt 0.451716 0.992353
vt 0.548284 0.992353
vt 0.626409 0.935591
vt 0.656250 0.843750
vt 0.500000 0.156250
vt 0.500000 0.843750
vn 0.587785 0.000000 -0.809017
vn 0.587785 0.000000 -0.809017
vn 0.587785 0.000000 -0.809017
vn 0.587785 0.000000 -0.809017
vn -0.000000 0.000000 -1.000000
vn -0.000000 0.000000 -1.000000
vn -0.000000 0.000000 -1.000000
vn -0.000000 0.000000 -1.000000
vn -0.587785 0.000000 -0.809017
vn -0.587785 0.000000 -0.809017
vn -0.587785 0.000000 -0.809017
vn -0.587785 0.000000 -0.809017
vn -0.951057 0.000000 -0.309017
vn -0.951057 0.000000 -0.309017
vn -0.951057 0.000000 -0.309017
vn -0.951057 0.000000 -0.309017
vn -0.951057 0.000000 0.309017
vn -0.951057 0.000000 0.309017
vn -0.951057 0.000000 0.309017
vn -0.951057 0.000000 0.309017
vn -0.587785 0.000000 0.809017
vn -0.587785 0.000000 0.809017
vn -0.587785 0.000000 0.809017
vn -0.587785 0.000000 0.809017
vn 0.000000 0.000000 1.000000
vn 0.000000 0.000000 1.000000
vn 0.000000 0.000000 1.000000
vn 0.000000 0.000000 1.000000
vn 0.587785 0.000000 0.809017
vn 0.587785 0.000000 0.809017
vn 0.587785 0.000000 0.809017
vn 0.587785 0.000000 0.809017
vn 0.951057 0.000000 0.309017
vn 0.951057 0.000000 0.309017
vn 0.951057 0.000000 0.309017
vn 0.951057 0.000000 0.309017
vn 0.951057 0.000000 -0.309017
vn 0.951057 0.000000 -0.309017
vn 0.951057 0.000000 -0.309017
vn 0.951057 0.000000 -0.309017
vn 0.000000 -1.000000 0.000000
vn 0.000000 -1.000000 0.000000
vn 0.000000 -1.000000 -0.000000
vn 0.000000 -1.000000 0.000000
vn 0.000000 -1.000000 0.000000
vn 0.000000 -1.000000 0.000000
vn 0.000000 -1.000000 -0.000000
vn 0.000000 -1.000000 -0.000000
vn 0.000000 -1.000000 0.000000
vn 0.000000 -1.000000 0.000000
vn 0.000000 -1.000000 0.000000
vn 0.000000 1.000000 0.000000
vn 0.000000 1.000000 0.000000
vn 0.000000 1.000000 0.000000
vn 0.000000 1.000000 0.000000
vn 0.000000 1.000000 -0.000000
vn 0.000000 1.000000 0.000000
vn 0.000000 1.000000 0.000000
vn 0.000000 1.000000 0.000000
vn 0.000000 1.000000 0.000000
vn 0.000000 1.000000 0.000000
vn 0.000000 1.000000 0.000000
s off
usemtl initialShadingGroup
f 1/11/1 2/12/2 12/23/3 11/22/4
f 2/12/5 3/13/6 13/24/7 12/23/8
f 3/13/9 4/14/10 14/25/11 13/24/12
f 4/14/13 5/15/14 15/26/15 14/25/16
f 5/15/17 6/16/18 16/27/19 15/26/20
f 6/16/21 7/17/22 17/28/23 16/27/24
f 7/17/25 8/18/26 18/29/27 17/28/28
f 8/18/29 9/19/30 19/30/31 18/29/32
f 9/19/33 10/20/34 20/31/35 19/30/36
f 10/20/37 1/21/38 11/32/39 20/31/40
s 1
f 2/2/41 1/1/42 21/43/43
f 3/3/44 2/2/41 21/43/43
f 4/4/45 3/3/44 21/43/43
f 5/5/46 4/4/45 21/43/43
f 6/6/47 5/5/46 21/43/43
f 7/7/48 6/6/47 21/43/43
f 8/8/49 7/7/48 21/43/43
f 9/9/50 8/8/49 21/43/43
f 10/10/51 9/9/50 21/43/43
f 1/1/42 10/10/51 21/43/43
s 2
f 11/41/52 12/40/53 22/44/54
f 12/40/53 13/39/55 22/44/54
f 13/39/55 14/38/56 22/44/54
f 14/38/56 15/37/57 22/44/54
f 15/37/57 16/36/58 22/44/54
f 16/36/58 17/35/59 22/44/54
f 17/35/59 18/34/60 22/44/54
f 18/34/60 19/33/61 22/44/54
f 19/33/61 20/42/62 22/44/54
f 20/42/62 11/41/52 22/44/54
