# This file uses centimeters as units for non-parametric coordinates.

mtllib lowRes_Cone.mtl
v 0.809017 -1.000000 -0.587785
v 0.309017 -1.000000 -0.951057
v -0.309017 -1.000000 -0.951057
v -0.809017 -1.000000 -0.587785
v -1.000000 -1.000000 0.000000
v -0.809017 -1.000000 0.587785
v -0.309017 -1.000000 0.951057
v 0.309017 -1.000000 0.951057
v 0.809017 -1.000000 0.587785
v 1.000000 -1.000000 0.000000
v 0.000000 1.000000 0.000000
vt 0.702254 0.103054
vt 0.577254 0.012236
vt 0.422746 0.012236
vt 0.297746 0.103054
vt 0.250000 0.250000
vt 0.297746 0.396946
vt 0.422746 0.487764
vt 0.577254 0.487764
vt 0.702254 0.396946
vt 0.750000 0.250000
vt 0.250000 0.500000
vt 0.300000 0.500000
vt 0.350000 0.500000
vt 0.400000 0.500000
vt 0.450000 0.500000
vt 0.500000 0.500000
vt 0.550000 0.500000
vt 0.600000 0.500000
vt 0.650000 0.500000
vt 0.700000 0.500000
vt 0.750000 0.500000
vt 0.500000 1.000000
vn 0.000000 -1.000000 0.000000
vn 0.000000 -1.000000 0.000000
vn 0.000000 -1.000000 0.000000
vn 0.000000 -1.000000 0.000000
vn 0.000000 -1.000000 0.000000
vn 0.000000 -1.000000 0.000000
vn 0.000000 -1.000000 0.000000
vn 0.000000 -1.000000 0.000000
vn 0.000000 -1.000000 0.000000
vn 0.000000 -1.000000 0.000000
vn 0.530824 0.429446 -0.730617
vn 0.530824 0.429446 -0.730617
vn 0.530824 0.429446 -0.730617
vn -0.000000 0.429446 -0.903093
vn -0.000000 0.429446 -0.903093
vn -0.000000 0.429446 -0.903093
vn -0.530825 0.429446 -0.730617
vn -0.530825 0.429446 -0.730617
vn -0.530825 0.429446 -0.730617
vn -0.858892 0.429446 -0.279071
vn -0.858892 0.429446 -0.279071
vn -0.858892 0.429446 -0.279071
vn -0.858892 0.429446 0.279071
vn -0.858892 0.429446 0.279071
vn -0.858892 0.429446 0.279071
vn -0.530824 0.429446 0.730617
vn -0.530824 0.429446 0.730617
vn -0.530824 0.429446 0.730617
vn 0.000000 0.429446 0.903093
vn 0.000000 0.429446 0.903093
vn 0.000000 0.429446 0.903093
vn 0.530825 0.429446 0.730617
vn 0.530825 0.429446 0.730617
vn 0.530825 0.429446 0.730617
vn 0.858892 0.429446 0.279071
vn 0.858892 0.429446 0.279071
vn 0.858892 0.429446 0.279071
vn 0.858892 0.429446 -0.279071
vn 0.858892 0.429446 -0.279071
vn 0.858892 0.429446 -0.279071
s off
usemtl initialShadingGroup
f 1/1/1 10/10/2 9/9/3 8/8/4 7/7/5 6/6/6 5/5/7 4/4/8 3/3/9 2/2/10
f 1/11/11 2/12/12 11/22/13
f 2/12/14 3/13/15 11/22/16
f 3/13/17 4/14/18 11/22/19
f 4/14/20 5/15/21 11/22/22
f 5/15/23 6/16/24 11/22/25
f 6/16/26 7/17/27 11/22/28
f 7/17/29 8/18/30 11/22/31
f 8/18/32 9/19/33 11/22/34
f 9/19/35 10/20/36 11/22/37
f 10/20/38 1/21/39 11/22/40
